# Blender v3.1.2 OBJ File: 'untitled.blend'
# www.blender.org
mtllib lighthouse.mtl
o Cube.001_Cube.003
v -0.000000 0.035115 -0.051415
v -0.000000 0.286358 -0.051415
v 0.044527 0.035115 -0.025708
v 0.044527 0.286358 -0.025708
v 0.044527 0.035115 0.025708
v 0.044527 0.286358 0.025708
v -0.000000 0.035115 0.051415
v -0.000000 0.286358 0.051415
v -0.044527 0.035115 0.025708
v -0.044527 0.286358 0.025708
v -0.044527 0.035115 -0.025708
v -0.044527 0.286358 -0.025708
v -0.018587 0.294336 0.012391
v -0.018587 0.327076 0.012391
v -0.012391 0.294336 -0.018587
v -0.012391 0.327076 -0.018587
v 0.012391 0.294336 0.018587
v 0.012391 0.327076 0.018587
v 0.012391 0.294336 -0.018587
v 0.012391 0.327076 -0.018587
v -0.018587 0.327076 -0.012391
v -0.018587 0.294336 -0.012391
v 0.018587 0.294336 -0.012391
v 0.018587 0.327076 -0.012391
v -0.018587 0.286151 -0.018587
v -0.012391 0.294336 0.018587
v -0.012391 0.327076 0.018587
v -0.018587 0.335261 -0.018587
v -0.018587 0.286151 0.018587
v -0.018587 0.335261 0.018587
v 0.018587 0.327076 0.012391
v 0.018587 0.294336 0.012391
v 0.018587 0.335261 -0.018587
v 0.018587 0.286151 -0.018587
v 0.018587 0.286151 0.018587
v 0.018587 0.335261 0.018587
v -0.000000 0.342057 -0.051415
v -0.000000 0.351207 -0.051415
v 0.044527 0.342057 -0.025708
v 0.044527 0.351207 -0.025708
v 0.044527 0.342057 0.025708
v 0.044527 0.351207 0.025708
v -0.000000 0.342057 0.051415
v -0.000000 0.351207 0.051415
v -0.044527 0.342057 0.025708
v -0.044527 0.351207 0.025708
v -0.044527 0.342057 -0.025708
v -0.044527 0.351207 -0.025708
v -0.000000 0.387075 0.000000
v 0.047635 0.217622 0.010240
v 0.047635 0.258778 0.010240
v 0.047635 0.217622 -0.010240
v 0.047635 0.258778 -0.010240
v 0.047635 0.140401 0.010240
v 0.047635 0.181556 0.010240
v 0.047635 0.140401 -0.010240
v 0.047635 0.181556 -0.010240
v 0.047635 0.063988 0.010240
v 0.047635 0.105144 0.010240
v 0.047635 0.063988 -0.010240
v 0.047635 0.105144 -0.010240
v -0.015557 0.217622 -0.046162
v -0.015557 0.258778 -0.046162
v -0.033115 0.217622 -0.035621
v -0.033115 0.258778 -0.035621
v -0.015557 0.140401 -0.046162
v -0.015557 0.181556 -0.046162
v -0.033115 0.140401 -0.035621
v -0.033115 0.181556 -0.035621
v -0.015557 0.063988 -0.046162
v -0.015557 0.105144 -0.046162
v -0.033115 0.063988 -0.035621
v -0.033115 0.105144 -0.035621
v -0.016775 0.217622 0.045079
v -0.016775 0.258778 0.045079
v -0.034548 0.217622 0.034905
v -0.034548 0.258778 0.034905
v -0.016775 0.140401 0.045079
v -0.016775 0.181556 0.045079
v -0.034548 0.140401 0.034905
v -0.034548 0.181556 0.034905
v -0.016775 0.063988 0.045079
v -0.016775 0.105144 0.045079
v -0.034548 0.063988 0.034905
v -0.034548 0.105144 0.034905
v 0.046274 0.036824 0.005803
v 0.046274 0.052519 0.005803
v 0.046274 0.036824 -0.004766
v 0.046274 0.052519 -0.004766
vt 0.189147 0.712087
vt 0.189147 0.338841
vt 0.255356 0.341031
vt 0.255356 0.714277
vt 0.321661 0.338850
vt 0.321661 0.712096
vt 0.112640 0.714271
vt 0.112640 0.341105
vt 0.189147 0.341110
vt 0.189147 0.714277
vt 0.427187 0.474047
vt 0.427187 0.100801
vt 0.493396 0.102991
vt 0.493396 0.476237
vt 0.321661 0.147574
vt 0.255404 0.185827
vt 0.189147 0.147574
vt 0.189147 0.071067
vt 0.255404 0.032814
vt 0.321661 0.071067
vt 0.559701 0.100811
vt 0.559701 0.474056
vt 0.350680 0.476231
vt 0.350680 0.103064
vt 0.427187 0.103070
vt 0.427187 0.476237
vt 0.255404 0.185827
vt 0.321661 0.224081
vt 0.321661 0.300588
vt 0.255404 0.338841
vt 0.189147 0.300588
vt 0.189147 0.224081
vt 0.146536 0.740645
vt 0.146536 0.795960
vt 0.091221 0.795960
vt 0.091221 0.740645
vt 0.189147 0.111293
vt 0.133832 0.111293
vt 0.133832 0.055978
vt 0.189147 0.055978
vt 0.223119 0.828361
vt 0.223119 0.779732
vt 0.231110 0.767296
vt 0.231110 0.840238
vt 0.191159 0.780849
vt 0.183169 0.768972
vt 0.191159 0.829478
vt 0.183169 0.841913
vt 0.181157 0.123715
vt 0.149198 0.124767
vt 0.141208 0.112870
vt 0.189147 0.111293
vt 0.181157 0.172354
vt 0.189147 0.184251
vt 0.149198 0.173405
vt 0.141208 0.185827
vt 0.239100 0.780849
vt 0.239100 0.829478
vt 0.231110 0.841913
vt 0.231110 0.768972
vt 0.271060 0.828361
vt 0.271060 0.779732
vt 0.279050 0.767296
vt 0.279050 0.840238
vt 0.133218 0.172354
vt 0.133218 0.123715
vt 0.141208 0.111293
vt 0.141208 0.184251
vt 0.101259 0.124767
vt 0.093270 0.112870
vt 0.101259 0.173405
vt 0.093270 0.185827
vt 0.056633 0.300588
vt 0.056633 0.224081
vt 0.122890 0.262334
vt 0.212793 0.841913
vt 0.279050 0.880167
vt 0.279050 0.956674
vt 0.212793 0.994927
vt 0.146536 0.956674
vt 0.146536 0.880167
vt 0.189147 0.300588
vt 0.122890 0.338841
vt 0.122890 0.185827
vt 0.189147 0.224081
vt 0.350680 0.026345
vt 0.350680 0.087486
vt 0.324270 0.088355
vt 0.324270 0.027214
vt 0.056633 0.077864
vt 0.056633 0.139004
vt 0.030223 0.139873
vt 0.030223 0.078732
vt 0.040081 0.604968
vt 0.040081 0.666109
vt 0.013670 0.666977
vt 0.013670 0.605836
vt 0.942902 0.102077
vt 0.942902 0.040950
vt 0.973371 0.040984
vt 0.973371 0.102112
vt 0.881966 0.102077
vt 0.881965 0.040950
vt 0.912434 0.040984
vt 0.912434 0.102112
vt 0.821029 0.102077
vt 0.821028 0.040950
vt 0.851497 0.040984
vt 0.851497 0.102112
vt 0.013765 0.604090
vt 0.013765 0.542949
vt 0.040081 0.543827
vt 0.040081 0.604968
vt 0.013765 0.542071
vt 0.013765 0.480930
vt 0.040081 0.481808
vt 0.040081 0.542949
vt 0.136516 0.055100
vt 0.136516 -0.006041
vt 0.162831 -0.005163
vt 0.162831 0.055978
vt 0.132906 0.716880
vt 0.132906 0.740197
vt 0.119277 0.740645
vt 0.119277 0.717328
vn 0.5000 0.0000 -0.8660
vn 1.0000 0.0000 0.0000
vn 0.5000 0.0000 0.8660
vn -0.5000 0.0000 0.8660
vn 0.0000 1.0000 -0.0000
vn -1.0000 0.0000 0.0000
vn -0.5000 0.0000 -0.8660
vn 0.0000 -1.0000 0.0000
vn 0.0000 0.0000 -1.0000
vn -0.0000 0.0000 1.0000
vn -0.6273 0.7788 0.0000
vn 0.3137 0.7788 -0.5433
vn 0.3137 0.7788 0.5433
vn -0.3137 0.7788 -0.5433
vn -0.3137 0.7788 0.5433
vn 0.6273 0.7788 0.0000
vn -0.5147 0.0000 -0.8574
vn -0.4968 0.0000 0.8679
usemtl Material.001
s off
f 1/1/1 2/2/1 4/3/1 3/4/1
f 3/4/2 4/3/2 6/5/2 5/6/2
f 5/7/3 6/8/3 8/9/3 7/10/3
f 7/11/4 8/12/4 10/13/4 9/14/4
f 4/15/5 2/16/5 12/17/5 10/18/5 8/19/5 6/20/5
f 9/14/6 10/13/6 12/21/6 11/22/6
f 11/23/7 12/24/7 2/25/7 1/26/7
f 1/27/8 3/28/8 5/29/8 7/30/8 9/31/8 11/32/8
f 25/33/8 34/34/8 35/35/8 29/36/8
f 33/37/5 28/38/5 30/39/5 36/40/5
f 16/41/9 15/42/9 25/43/9 28/44/9
f 15/42/9 19/45/9 34/46/9 25/43/9
f 20/47/9 16/41/9 28/44/9 33/48/9
f 19/45/9 20/47/9 33/48/9 34/46/9
f 13/49/6 22/50/6 25/51/6 29/52/6
f 14/53/6 13/49/6 29/52/6 30/54/6
f 21/55/6 14/53/6 30/54/6 28/56/6
f 22/50/6 21/55/6 28/56/6 25/51/6
f 26/57/10 27/58/10 30/59/10 29/60/10
f 18/61/10 17/62/10 35/63/10 36/64/10
f 17/62/10 26/57/10 29/60/10 35/63/10
f 27/58/10 18/61/10 36/64/10 30/59/10
f 24/65/2 23/66/2 34/67/2 33/68/2
f 23/66/2 32/69/2 35/70/2 34/67/2
f 31/71/2 24/65/2 33/68/2 36/72/2
f 32/69/2 31/71/2 36/72/2 35/70/2
f 48/73/11 46/74/11 49/75/11
f 37/76/8 39/77/8 41/78/8 43/79/8 45/80/8 47/81/8
f 40/82/12 38/83/12 49/75/12
f 44/84/13 42/85/13 49/75/13
f 38/83/14 48/73/14 49/75/14
f 46/74/15 44/84/15 49/75/15
f 42/85/16 40/82/16 49/75/16
f 52/86/2 53/87/2 51/88/2 50/89/2
f 56/90/2 57/91/2 55/92/2 54/93/2
f 60/94/2 61/95/2 59/96/2 58/97/2
f 64/98/17 65/99/17 63/100/17 62/101/17
f 68/102/17 69/103/17 67/104/17 66/105/17
f 72/106/17 73/107/17 71/108/17 70/109/17
f 74/110/18 75/111/18 77/112/18 76/113/18
f 78/114/18 79/115/18 81/116/18 80/117/18
f 82/118/18 83/119/18 85/120/18 84/121/18
f 88/122/2 89/123/2 87/124/2 86/125/2
