# Blender v3.1.2 OBJ File: ''
# www.blender.org
mtllib cylinder.mtl
o Cylinder
v 0.000000 -1.000000 -1.000000
v 0.000000 1.000000 -1.000000
v 0.139173 -1.000000 -0.990268
v 0.139173 1.000000 -0.990268
v 0.275637 -1.000000 -0.961262
v 0.275637 1.000000 -0.961262
v 0.406737 -1.000000 -0.913545
v 0.406737 1.000000 -0.913545
v 0.529919 -1.000000 -0.848048
v 0.529919 1.000000 -0.848048
v 0.642788 -1.000000 -0.766044
v 0.642788 1.000000 -0.766044
v 0.743145 -1.000000 -0.669131
v 0.743145 1.000000 -0.669131
v 0.829038 -1.000000 -0.559193
v 0.829038 1.000000 -0.559193
v 0.898794 -1.000000 -0.438371
v 0.898794 1.000000 -0.438371
v 0.951057 -1.000000 -0.309017
v 0.951057 1.000000 -0.309017
v 0.984808 -1.000000 -0.173648
v 0.984808 1.000000 -0.173648
v 0.999391 -1.000000 -0.034899
v 0.999391 1.000000 -0.034899
v 0.994522 -1.000000 0.104529
v 0.994522 1.000000 0.104529
v 0.970296 -1.000000 0.241922
v 0.970296 1.000000 0.241922
v 0.927184 -1.000000 0.374607
v 0.927184 1.000000 0.374607
v 0.866025 -1.000000 0.500000
v 0.866025 1.000000 0.500000
v 0.788011 -1.000000 0.615661
v 0.788011 1.000000 0.615661
v 0.694658 -1.000000 0.719340
v 0.694658 1.000000 0.719340
v 0.587785 -1.000000 0.809017
v 0.587785 1.000000 0.809017
v 0.469472 -1.000000 0.882948
v 0.469472 1.000000 0.882948
v 0.342020 -1.000000 0.939693
v 0.342020 1.000000 0.939693
v 0.207912 -1.000000 0.978148
v 0.207912 1.000000 0.978148
v 0.069756 -1.000000 0.997564
v 0.069756 1.000000 0.997564
v -0.069756 -1.000000 0.997564
v -0.069756 1.000000 0.997564
v -0.207912 -1.000000 0.978148
v -0.207912 1.000000 0.978148
v -0.342020 -1.000000 0.939693
v -0.342020 1.000000 0.939693
v -0.469472 -1.000000 0.882948
v -0.469472 1.000000 0.882948
v -0.587785 -1.000000 0.809017
v -0.587785 1.000000 0.809017
v -0.694658 -1.000000 0.719340
v -0.694658 1.000000 0.719340
v -0.788011 -1.000000 0.615662
v -0.788011 1.000000 0.615662
v -0.866025 -1.000000 0.500000
v -0.866025 1.000000 0.500000
v -0.927184 -1.000000 0.374607
v -0.927184 1.000000 0.374607
v -0.970296 -1.000000 0.241922
v -0.970296 1.000000 0.241922
v -0.994522 -1.000000 0.104528
v -0.994522 1.000000 0.104528
v -0.999391 -1.000000 -0.034899
v -0.999391 1.000000 -0.034899
v -0.984808 -1.000000 -0.173648
v -0.984808 1.000000 -0.173648
v -0.951056 -1.000000 -0.309017
v -0.951056 1.000000 -0.309017
v -0.898794 -1.000000 -0.438371
v -0.898794 1.000000 -0.438371
v -0.829038 -1.000000 -0.559193
v -0.829038 1.000000 -0.559193
v -0.743145 -1.000000 -0.669131
v -0.743145 1.000000 -0.669131
v -0.642788 -1.000000 -0.766044
v -0.642788 1.000000 -0.766044
v -0.529919 -1.000000 -0.848048
v -0.529919 1.000000 -0.848048
v -0.406736 -1.000000 -0.913546
v -0.406736 1.000000 -0.913546
v -0.275638 -1.000000 -0.961262
v -0.275638 1.000000 -0.961262
v -0.139173 -1.000000 -0.990268
v -0.139173 1.000000 -0.990268
vt 1.000000 0.500000
vt 1.000000 1.000000
vt 0.977778 1.000000
vt 0.977778 0.500000
vt 0.955556 1.000000
vt 0.955556 0.500000
vt 0.933333 1.000000
vt 0.933333 0.500000
vt 0.911111 1.000000
vt 0.911111 0.500000
vt 0.888889 1.000000
vt 0.888889 0.500000
vt 0.866667 1.000000
vt 0.866667 0.500000
vt 0.844444 1.000000
vt 0.844444 0.500000
vt 0.822222 1.000000
vt 0.822222 0.500000
vt 0.800000 1.000000
vt 0.800000 0.500000
vt 0.777778 1.000000
vt 0.777778 0.500000
vt 0.755556 1.000000
vt 0.755556 0.500000
vt 0.733333 1.000000
vt 0.733333 0.500000
vt 0.711111 1.000000
vt 0.711111 0.500000
vt 0.688889 1.000000
vt 0.688889 0.500000
vt 0.666667 1.000000
vt 0.666667 0.500000
vt 0.644444 1.000000
vt 0.644444 0.500000
vt 0.622222 1.000000
vt 0.622222 0.500000
vt 0.600000 1.000000
vt 0.600000 0.500000
vt 0.577778 1.000000
vt 0.577778 0.500000
vt 0.555556 1.000000
vt 0.555556 0.500000
vt 0.533333 1.000000
vt 0.533333 0.500000
vt 0.511111 1.000000
vt 0.511111 0.500000
vt 0.488889 1.000000
vt 0.488889 0.500000
vt 0.466667 1.000000
vt 0.466667 0.500000
vt 0.444444 1.000000
vt 0.444444 0.500000
vt 0.422222 1.000000
vt 0.422222 0.500000
vt 0.400000 1.000000
vt 0.400000 0.500000
vt 0.377778 1.000000
vt 0.377778 0.500000
vt 0.355556 1.000000
vt 0.355556 0.500000
vt 0.333333 1.000000
vt 0.333333 0.500000
vt 0.311111 1.000000
vt 0.311111 0.500000
vt 0.288889 1.000000
vt 0.288889 0.500000
vt 0.266667 1.000000
vt 0.266667 0.500000
vt 0.244444 1.000000
vt 0.244444 0.500000
vt 0.222222 1.000000
vt 0.222222 0.500000
vt 0.200000 1.000000
vt 0.200000 0.500000
vt 0.177778 1.000000
vt 0.177778 0.500000
vt 0.155556 1.000000
vt 0.155556 0.500000
vt 0.133333 1.000000
vt 0.133333 0.500000
vt 0.111111 1.000000
vt 0.111111 0.500000
vt 0.088889 1.000000
vt 0.088889 0.500000
vt 0.066667 1.000000
vt 0.066667 0.500000
vt 0.044445 1.000000
vt 0.044445 0.500000
vt 0.283402 0.487664
vt 0.250000 0.490000
vt 0.216598 0.487664
vt 0.183847 0.480703
vt 0.152383 0.469251
vt 0.122819 0.453532
vt 0.095731 0.433851
vt 0.071645 0.410591
vt 0.051031 0.384206
vt 0.034289 0.355209
vt 0.021746 0.324164
vt 0.013646 0.291676
vt 0.010146 0.258376
vt 0.011315 0.224913
vt 0.017129 0.191939
vt 0.027476 0.160094
vt 0.042154 0.130000
vt 0.060877 0.102241
vt 0.083282 0.077358
vt 0.108932 0.055836
vt 0.137327 0.038093
vt 0.167915 0.024474
vt 0.200101 0.015245
vt 0.233258 0.010585
vt 0.266742 0.010585
vt 0.299899 0.015245
vt 0.332085 0.024474
vt 0.362673 0.038093
vt 0.391068 0.055836
vt 0.416718 0.077358
vt 0.439123 0.102241
vt 0.457846 0.130000
vt 0.472524 0.160094
vt 0.482871 0.191939
vt 0.488685 0.224913
vt 0.489854 0.258376
vt 0.486354 0.291676
vt 0.478254 0.324164
vt 0.465711 0.355209
vt 0.448969 0.384206
vt 0.428355 0.410591
vt 0.404269 0.433851
vt 0.377181 0.453532
vt 0.347617 0.469251
vt 0.316153 0.480703
vt 0.022222 1.000000
vt 0.022222 0.500000
vt 0.000000 1.000000
vt 0.000000 0.500000
vt 0.750000 0.490000
vt 0.783402 0.487664
vt 0.816153 0.480703
vt 0.847617 0.469251
vt 0.877181 0.453532
vt 0.904269 0.433851
vt 0.928355 0.410591
vt 0.948969 0.384206
vt 0.965711 0.355209
vt 0.978254 0.324164
vt 0.986354 0.291676
vt 0.989854 0.258376
vt 0.988685 0.224913
vt 0.982871 0.191939
vt 0.972524 0.160094
vt 0.957846 0.130000
vt 0.939123 0.102241
vt 0.916718 0.077358
vt 0.891068 0.055836
vt 0.862673 0.038093
vt 0.832085 0.024474
vt 0.799899 0.015245
vt 0.766742 0.010585
vt 0.733258 0.010585
vt 0.700101 0.015245
vt 0.667915 0.024474
vt 0.637327 0.038093
vt 0.608932 0.055836
vt 0.583282 0.077358
vt 0.560877 0.102241
vt 0.542154 0.130000
vt 0.527476 0.160094
vt 0.517129 0.191939
vt 0.511315 0.224913
vt 0.510146 0.258376
vt 0.513646 0.291676
vt 0.521746 0.324164
vt 0.534289 0.355209
vt 0.551031 0.384206
vt 0.571645 0.410591
vt 0.595731 0.433851
vt 0.622819 0.453532
vt 0.652383 0.469251
vt 0.683847 0.480703
vt 0.716598 0.487664
vn 0.0698 0.0000 -0.9976
vn 0.2079 0.0000 -0.9781
vn 0.3420 0.0000 -0.9397
vn 0.4695 0.0000 -0.8829
vn 0.5878 0.0000 -0.8090
vn 0.6947 0.0000 -0.7193
vn 0.7880 0.0000 -0.6157
vn 0.8660 0.0000 -0.5000
vn 0.9272 0.0000 -0.3746
vn 0.9703 0.0000 -0.2419
vn 0.9945 0.0000 -0.1045
vn 0.9994 0.0000 0.0349
vn 0.9848 0.0000 0.1736
vn 0.9511 0.0000 0.3090
vn 0.8988 0.0000 0.4384
vn 0.8290 0.0000 0.5592
vn 0.7431 0.0000 0.6691
vn 0.6428 0.0000 0.7660
vn 0.5299 0.0000 0.8480
vn 0.4067 0.0000 0.9135
vn 0.2756 0.0000 0.9613
vn 0.1392 0.0000 0.9903
vn 0.0000 0.0000 1.0000
vn -0.1392 0.0000 0.9903
vn -0.2756 0.0000 0.9613
vn -0.4067 0.0000 0.9135
vn -0.5299 0.0000 0.8480
vn -0.6428 0.0000 0.7660
vn -0.7431 0.0000 0.6691
vn -0.8290 0.0000 0.5592
vn -0.8988 0.0000 0.4384
vn -0.9511 0.0000 0.3090
vn -0.9848 0.0000 0.1736
vn -0.9994 0.0000 0.0349
vn -0.9945 0.0000 -0.1045
vn -0.9703 0.0000 -0.2419
vn -0.9272 0.0000 -0.3746
vn -0.8660 0.0000 -0.5000
vn -0.7880 0.0000 -0.6157
vn -0.6947 0.0000 -0.7193
vn -0.5878 0.0000 -0.8090
vn -0.4695 0.0000 -0.8829
vn -0.3420 0.0000 -0.9397
vn 0.0000 1.0000 0.0000
vn -0.2079 0.0000 -0.9781
vn -0.0698 0.0000 -0.9976
vn 0.0000 -1.0000 0.0000
usemtl None
s off
f 1/1/1 2/2/1 4/3/1 3/4/1
f 3/4/2 4/3/2 6/5/2 5/6/2
f 5/6/3 6/5/3 8/7/3 7/8/3
f 7/8/4 8/7/4 10/9/4 9/10/4
f 9/10/5 10/9/5 12/11/5 11/12/5
f 11/12/6 12/11/6 14/13/6 13/14/6
f 13/14/7 14/13/7 16/15/7 15/16/7
f 15/16/8 16/15/8 18/17/8 17/18/8
f 17/18/9 18/17/9 20/19/9 19/20/9
f 19/20/10 20/19/10 22/21/10 21/22/10
f 21/22/11 22/21/11 24/23/11 23/24/11
f 23/24/12 24/23/12 26/25/12 25/26/12
f 25/26/13 26/25/13 28/27/13 27/28/13
f 27/28/14 28/27/14 30/29/14 29/30/14
f 29/30/15 30/29/15 32/31/15 31/32/15
f 31/32/16 32/31/16 34/33/16 33/34/16
f 33/34/17 34/33/17 36/35/17 35/36/17
f 35/36/18 36/35/18 38/37/18 37/38/18
f 37/38/19 38/37/19 40/39/19 39/40/19
f 39/40/20 40/39/20 42/41/20 41/42/20
f 41/42/21 42/41/21 44/43/21 43/44/21
f 43/44/22 44/43/22 46/45/22 45/46/22
f 45/46/23 46/45/23 48/47/23 47/48/23
f 47/48/24 48/47/24 50/49/24 49/50/24
f 49/50/25 50/49/25 52/51/25 51/52/25
f 51/52/26 52/51/26 54/53/26 53/54/26
f 53/54/27 54/53/27 56/55/27 55/56/27
f 55/56/28 56/55/28 58/57/28 57/58/28
f 57/58/29 58/57/29 60/59/29 59/60/29
f 59/60/30 60/59/30 62/61/30 61/62/30
f 61/62/31 62/61/31 64/63/31 63/64/31
f 63/64/32 64/63/32 66/65/32 65/66/32
f 65/66/33 66/65/33 68/67/33 67/68/33
f 67/68/34 68/67/34 70/69/34 69/70/34
f 69/70/35 70/69/35 72/71/35 71/72/35
f 71/72/36 72/71/36 74/73/36 73/74/36
f 73/74/37 74/73/37 76/75/37 75/76/37
f 75/76/38 76/75/38 78/77/38 77/78/38
f 77/78/39 78/77/39 80/79/39 79/80/39
f 79/80/40 80/79/40 82/81/40 81/82/40
f 81/82/41 82/81/41 84/83/41 83/84/41
f 83/84/42 84/83/42 86/85/42 85/86/42
f 85/86/43 86/85/43 88/87/43 87/88/43
f 4/89/44 2/90/44 90/91/44 88/92/44 86/93/44 84/94/44 82/95/44 80/96/44 78/97/44 76/98/44 74/99/44 72/100/44 70/101/44 68/102/44 66/103/44 64/104/44 62/105/44 60/106/44 58/107/44 56/108/44 54/109/44 52/110/44 50/111/44 48/112/44 46/113/44 44/114/44 42/115/44 40/116/44 38/117/44 36/118/44 34/119/44 32/120/44 30/121/44 28/122/44 26/123/44 24/124/44 22/125/44 20/126/44 18/127/44 16/128/44 14/129/44 12/130/44 10/131/44 8/132/44 6/133/44
f 87/88/45 88/87/45 90/134/45 89/135/45
f 89/135/46 90/134/46 2/136/46 1/137/46
f 1/138/47 3/139/47 5/140/47 7/141/47 9/142/47 11/143/47 13/144/47 15/145/47 17/146/47 19/147/47 21/148/47 23/149/47 25/150/47 27/151/47 29/152/47 31/153/47 33/154/47 35/155/47 37/156/47 39/157/47 41/158/47 43/159/47 45/160/47 47/161/47 49/162/47 51/163/47 53/164/47 55/165/47 57/166/47 59/167/47 61/168/47 63/169/47 65/170/47 67/171/47 69/172/47 71/173/47 73/174/47 75/175/47 77/176/47 79/177/47 81/178/47 83/179/47 85/180/47 87/181/47 89/182/47
